<svg width="50" height="50" viewBox="0 0 50 50" fill="none" xmlns="http://www.w3.org/2000/svg">
<g clip-path="url(#clip0_4867_207)">
<path d="M25 0C38.8071 0 50 11.1929 50 25C50 38.8071 38.8071 50 25 50C11.1929 50 0 38.8071 0 25C0 11.1929 11.1929 0 25 0ZM25 11.667C17.6362 11.6672 11.667 17.6361 11.667 25C11.6631 27.3572 12.2869 29.6729 13.4746 31.709L11.6719 38.333L18.2939 36.5264C20.3294 37.7132 22.6439 38.3368 25 38.333C32.364 38.333 38.334 32.364 38.334 25C38.334 17.636 32.364 11.667 25 11.667ZM20.7246 18.7373C20.7965 18.7426 20.8685 18.7508 20.9404 18.7588C21.1524 18.7842 21.3852 18.9122 21.4639 19.0908C21.8612 19.9921 22.2488 20.8996 22.6221 21.8115C22.7047 22.0128 22.6552 22.2732 22.498 22.5264C22.418 22.6557 22.2941 22.8377 22.1475 23.0244C21.9968 23.2164 21.6719 23.5703 21.6719 23.5703C21.6701 23.5725 21.5406 23.7293 21.5908 23.9238C21.6246 24.0201 21.6701 24.1122 21.7266 24.1973L21.8057 24.3242C22.1839 24.9442 22.6415 25.5123 23.166 26.0146C23.3258 26.1692 23.4816 26.3291 23.6494 26.4756C24.2757 27.0278 24.9848 27.4795 25.75 27.8135C25.8631 27.8614 25.9208 27.8878 26.0859 27.957C26.1686 27.9923 26.254 28.0216 26.3408 28.0449C26.4305 28.0679 26.525 28.064 26.6123 28.0332C26.6996 28.0023 26.7758 27.9463 26.8311 27.8721C27.78 26.7223 27.8813 26.6309 27.8906 26.6309C27.9577 26.5683 28.0381 26.5204 28.125 26.4912C28.2117 26.4622 28.3036 26.4517 28.3945 26.4609C28.4754 26.4647 28.5557 26.4832 28.6299 26.5156C29.3361 26.8369 30.489 27.3394 30.499 27.3438L31.2754 27.6924C31.4044 27.7551 31.5228 27.9026 31.5283 28.0449C31.5323 28.1343 31.5418 28.279 31.5098 28.543C31.4671 28.8881 31.3627 29.3022 31.2588 29.5195C31.1855 29.6729 31.0892 29.8082 30.9785 29.9229C30.8294 30.0786 30.7189 30.1734 30.5391 30.3066C30.4297 30.3893 30.3721 30.4268 30.3721 30.4268C30.2065 30.5322 30.0359 30.6298 29.8613 30.7197C29.5182 30.9025 29.1392 31.0083 28.751 31.0283C28.503 31.0403 28.2564 31.0582 28.0098 31.0449L27.252 30.9297C25.3565 30.4311 23.6039 29.4963 22.1328 28.2012C21.8315 27.9358 21.551 27.6502 21.2656 27.3662C20.0818 26.1863 19.184 24.9135 18.6387 23.7109C18.372 23.1163 18.2019 22.4795 18.1992 21.8262C18.1953 21.0174 18.461 20.2299 18.9541 19.5889C19.0513 19.4624 19.142 19.3321 19.3018 19.1816C19.4171 19.062 19.5487 18.9589 19.6934 18.877C19.8479 18.7995 20.0169 18.7547 20.1895 18.7441L20.4561 18.7334L20.4551 18.7324C20.5448 18.7315 20.6349 18.7328 20.7246 18.7373Z" fill="#2CB742"/>
</g>
<defs>
<clipPath id="clip0_4867_207">
<rect width="50" height="50" fill="white"/>
</clipPath>
</defs>
</svg>
